# xmcd
#
# Track frame offsets:
#	150
#	14937
#	27111
#	39465
#	48039
#	71878
#	82819
#	104898
#	119205
#	129279
#	143897
#	154193
#	166401
#	180964
#	190615
#	208308
#	218511
#	232212
#	242537
#	255377
#
# Disc length: 3637 seconds
#
# Revision: 0
# Processed by: cddbd v1.5.2PL0 Copyright (c) Steve Scherf et al.
# Submitted via: EasyCDDAExtractor 16.0.6.1
#
DISCID=1c0e3314
DTITLE=Χορωδία - Τα τραγούδια του Κόκκινου Στρατού
DYEAR=2001
DGENRE=Ξένη πατριωτική
TTITLE0=Ιερός πόλεμος [Α. Β. Αλεξαντρώφ]
TTITLE1=Κόκκινος Στρατός
TTITLE2=Στους κάμπους, στα βουνά [Π. Σ. Παρφιόνωφ]
TTITLE3=Εμπρός σύντροφοι
TTITLE4=Βόλγα ρώσικο ποτάμι [ρώσικο φολκλορικό τραγούδι]
TTITLE5=Το τραγούδι του Κόκκινου Στρατού
TTITLE6=Καλίνκα [ρώσικο φολκλορικό τραγούδι]
TTITLE7=Βαρσοβιάννα
TTITLE8=Τσαπάεφ
TTITLE9=Βαρκάρηδες του Βόλγα
TTITLE10=Κατιούσα [ρώσικο φολκλορικό τραγούδι]
TTITLE11=Πολιούσκο Πόλε
TTITLE12=Το χωριό φάνηκε [ουκρανικό φολκλορικό τραγούδι]
TTITLE13=Ο αποχαιρετισμός του στρατιώτη
TTITLE14=Εμπρός στη μάχη
TTITLE15=Τραγούδι για τους ήρωες
TTITLE16=Βλέπω ένα χωριό [ουκρανικό φολκλορικό τραγούδι]
TTITLE17=Γυρίζοντας από το Βερολίνο
TTITLE18=Εργατική μαρσεγιέζα
TTITLE19=Διεθνής
EXTD=
EXTT0=
EXTT1=
EXTT2=
EXTT3=
EXTT4=
EXTT5=
EXTT6=
EXTT7=
EXTT8=
EXTT9=
EXTT10=
EXTT11=
EXTT12=
EXTT13=
EXTT14=
EXTT15=
EXTT16=
EXTT17=
EXTT18=
EXTT19=
PLAYORDER=
